<svg width="16" height="16" viewBox="0 0 16 16" fill="none" xmlns="http://www.w3.org/2000/svg">
<path d="M7.66663 1.33337L3.99996 7.33337H11.3333L7.66663 1.33337ZM7.66663 3.89337L8.95329 6.00004H6.37329L7.66663 3.89337ZM11.3333 8.66671C9.67329 8.66671 8.33329 10.0067 8.33329 11.6667C8.33329 13.3267 9.67329 14.6667 11.3333 14.6667C12.9933 14.6667 14.3333 13.3267 14.3333 11.6667C14.3333 10.0067 12.9933 8.66671 11.3333 8.66671ZM11.3333 13.3334C10.4133 13.3334 9.66663 12.5867 9.66663 11.6667C9.66663 10.7467 10.4133 10 11.3333 10C12.2533 10 13 10.7467 13 11.6667C13 12.5867 12.2533 13.3334 11.3333 13.3334ZM1.66663 14.3334H6.99996V9.00004H1.66663V14.3334ZM2.99996 10.3334H5.66663V13H2.99996V10.3334Z" fill="#28272A"/>
</svg>
