<svg width="16" height="16" viewBox="0 0 16 16" fill="none" xmlns="http://www.w3.org/2000/svg">
<path d="M14 5.66671C13.0333 5.66671 12.4933 6.62671 12.7133 7.34004L10.3466 9.71337C10.1466 9.65337 9.85329 9.65337 9.65329 9.71337L7.95329 8.01337C8.17996 7.30004 7.63996 6.33337 6.66663 6.33337C5.69996 6.33337 5.15329 7.29337 5.37996 8.01337L2.33996 11.0467C1.62663 10.8267 0.666626 11.3667 0.666626 12.3334C0.666626 13.0667 1.26663 13.6667 1.99996 13.6667C2.96663 13.6667 3.50663 12.7067 3.28663 11.9934L6.31996 8.95337C6.51996 9.01337 6.81329 9.01337 7.01329 8.95337L8.71329 10.6534C8.48663 11.3667 9.02663 12.3334 9.99996 12.3334C10.9666 12.3334 11.5133 11.3734 11.2866 10.6534L13.66 8.28671C14.3733 8.50671 15.3333 7.96671 15.3333 7.00004C15.3333 6.26671 14.7333 5.66671 14 5.66671Z" fill="#28272A"/>
<path d="M9.99996 6.33337L10.6266 4.95337L12 4.33337L10.6266 3.71337L9.99996 2.33337L9.38663 3.71337L7.99996 4.33337L9.38663 4.95337L9.99996 6.33337Z" fill="#28272A"/>
<path d="M2.33329 7.66671L2.66663 6.33337L3.99996 6.00004L2.66663 5.66671L2.33329 4.33337L1.99996 5.66671L0.666626 6.00004L1.99996 6.33337L2.33329 7.66671Z" fill="#28272A"/>
</svg>
