<svg width="17" height="16" viewBox="0 0 17 16" fill="none" xmlns="http://www.w3.org/2000/svg">
<path d="M12.5 5.66667H11.8333V4.33333C11.8333 2.49333 10.34 1 8.49996 1C6.65996 1 5.16663 2.49333 5.16663 4.33333V5.66667H4.49996C3.76663 5.66667 3.16663 6.26667 3.16663 7V13.6667C3.16663 14.4 3.76663 15 4.49996 15H12.5C13.2333 15 13.8333 14.4 13.8333 13.6667V7C13.8333 6.26667 13.2333 5.66667 12.5 5.66667ZM6.49996 4.33333C6.49996 3.22667 7.39329 2.33333 8.49996 2.33333C9.60663 2.33333 10.5 3.22667 10.5 4.33333V5.66667H6.49996V4.33333ZM12.5 13.6667H4.49996V7H12.5V13.6667ZM8.49996 11.6667C9.23329 11.6667 9.83329 11.0667 9.83329 10.3333C9.83329 9.6 9.23329 9 8.49996 9C7.76663 9 7.16663 9.6 7.16663 10.3333C7.16663 11.0667 7.76663 11.6667 8.49996 11.6667Z" fill="#1840B2"/>
</svg>
