<svg width="16" height="16" viewBox="0 0 16 16" fill="none" xmlns="http://www.w3.org/2000/svg">
<path d="M6.45329 8.79333L7.99996 7.62L9.53996 8.79333L8.95329 6.89333L10.5 5.66667H8.60663L7.99996 3.79333L7.39329 5.66667H5.49996L7.03996 6.89333L6.45329 8.79333ZM13.3333 6.33333C13.3333 3.38667 10.9466 1 7.99996 1C5.05329 1 2.66663 3.38667 2.66663 6.33333C2.66663 7.68667 3.17329 8.91333 3.99996 9.85333V15L7.99996 13.6667L12 15V9.85333C12.8266 8.91333 13.3333 7.68667 13.3333 6.33333ZM7.99996 2.33333C10.2066 2.33333 12 4.12667 12 6.33333C12 8.54 10.2066 10.3333 7.99996 10.3333C5.79329 10.3333 3.99996 8.54 3.99996 6.33333C3.99996 4.12667 5.79329 2.33333 7.99996 2.33333ZM7.99996 12.3333L5.33329 13.0133V10.9467C6.11996 11.4 7.02663 11.6667 7.99996 11.6667C8.97329 11.6667 9.87996 11.4 10.6666 10.9467V13.0133L7.99996 12.3333Z" fill="#28272A"/>
</svg>
