<svg width="17" height="16" viewBox="0 0 17 16" fill="none" xmlns="http://www.w3.org/2000/svg">
<path d="M8.50002 3.98334C11.0267 3.98334 13.28 5.40334 14.38 7.65C13.9867 8.46334 13.4334 9.16334 12.7734 9.73L13.7134 10.67C14.64 9.85 15.3734 8.82334 15.8334 7.65C14.68 4.72334 11.8334 2.65 8.50002 2.65C7.65335 2.65 6.84002 2.78334 6.07335 3.03L7.17335 4.13C7.60669 4.04334 8.04669 3.98334 8.50002 3.98334ZM7.78669 4.74334L9.16669 6.12334C9.54669 6.29 9.85335 6.59667 10.02 6.97667L11.4 8.35667C11.4534 8.13 11.4934 7.89 11.4934 7.64334C11.5 5.99 10.1534 4.65 8.50002 4.65C8.25335 4.65 8.02002 4.68334 7.78669 4.74334ZM1.84002 2.56334L3.62669 4.35C2.54002 5.20334 1.68002 6.33667 1.16669 7.65C2.32002 10.5767 5.16669 12.65 8.50002 12.65C9.51335 12.65 10.4867 12.4567 11.38 12.1033L13.66 14.3833L14.6 13.4433L2.78002 1.61667L1.84002 2.56334ZM6.84002 7.56334L8.58002 9.30334C8.55335 9.31 8.52669 9.31667 8.50002 9.31667C7.58002 9.31667 6.83335 8.57 6.83335 7.65C6.83335 7.61667 6.84002 7.59667 6.84002 7.56334ZM4.57335 5.29667L5.74002 6.46334C5.58669 6.83 5.50002 7.23 5.50002 7.65C5.50002 9.30334 6.84669 10.65 8.50002 10.65C8.92002 10.65 9.32002 10.5633 9.68002 10.41L10.3334 11.0633C9.74669 11.2233 9.13335 11.3167 8.50002 11.3167C5.97335 11.3167 3.72002 9.89667 2.62002 7.65C3.08669 6.69667 3.76669 5.91 4.57335 5.29667Z" fill="#28272A"/>
</svg>
