<svg width="16" height="16" viewBox="0 0 16 16" fill="none" xmlns="http://www.w3.org/2000/svg">
<path d="M14.5985 5.92667L13.8985 3.01333C13.7519 2.41333 13.2319 2 12.6252 2H3.36521C2.76521 2 2.23854 2.42 2.09854 3.01333L1.39854 5.92667C1.23854 6.60667 1.38521 7.3 1.81187 7.84667C1.86521 7.92 1.93854 7.97333 1.99854 8.04V12.6667C1.99854 13.4 2.59854 14 3.33187 14H12.6652C13.3985 14 13.9985 13.4 13.9985 12.6667V8.04C14.0585 7.98 14.1319 7.92 14.1852 7.85333C14.6119 7.30667 14.7652 6.60667 14.5985 5.92667ZM12.6052 3.32667L13.3052 6.24C13.3719 6.52 13.3119 6.8 13.1385 7.02C13.0452 7.14 12.8452 7.33333 12.5119 7.33333C12.1052 7.33333 11.7519 7.00667 11.7052 6.57333L11.3185 3.33333L12.6052 3.32667ZM8.66521 3.33333H9.97187L10.3319 6.34667C10.3652 6.60667 10.2852 6.86667 10.1119 7.06C9.96521 7.23333 9.75187 7.33333 9.47854 7.33333C9.03187 7.33333 8.66521 6.94 8.66521 6.46V3.33333ZM5.65854 6.34667L6.02521 3.33333H7.33187V6.46C7.33187 6.94 6.96521 7.33333 6.47187 7.33333C6.24521 7.33333 6.03854 7.23333 5.87854 7.06C5.71187 6.86667 5.63187 6.60667 5.65854 6.34667ZM2.69187 6.24L3.36521 3.33333H4.67854L4.29187 6.57333C4.23854 7.00667 3.89187 7.33333 3.48521 7.33333C3.15854 7.33333 2.95187 7.14 2.86521 7.02C2.68521 6.80667 2.62521 6.52 2.69187 6.24ZM3.33187 12.6667V8.64667C3.38521 8.65333 3.43187 8.66667 3.48521 8.66667C4.06521 8.66667 4.59187 8.42667 4.97854 8.03333C5.37854 8.43333 5.91187 8.66667 6.51854 8.66667C7.09854 8.66667 7.61854 8.42667 8.00521 8.04667C8.39854 8.42667 8.93187 8.66667 9.53187 8.66667C10.0919 8.66667 10.6252 8.43333 11.0252 8.03333C11.4119 8.42667 11.9385 8.66667 12.5185 8.66667C12.5719 8.66667 12.6185 8.65333 12.6719 8.64667V12.6667H3.33187Z" fill="#28272A"/>
</svg>
