<svg width="230" height="151" viewBox="0 0 230 151" fill="none" xmlns="http://www.w3.org/2000/svg">
<g clip-path="url(#clip0_7_607)">
<g opacity="0.5" clip-path="url(#clip1_7_607)">
<path d="M195.25 22.5802C195.25 38.8581 182.054 52.0538 165.776 52.0538C149.499 52.0538 136.303 38.858 136.303 22.5802C136.303 6.30237 149.499 -6.89343 165.776 -6.89343C182.054 -6.89343 195.25 6.30237 195.25 22.5802Z" fill="#FED639"/>
<path d="M17.4246 88.6182C17.4246 104.896 4.22877 118.092 -12.0491 118.092C-28.3269 118.092 -41.5227 104.896 -41.5227 88.6182C-41.5227 72.3403 -28.3269 59.1445 -12.0491 59.1445C4.22878 59.1445 17.4246 72.3403 17.4246 88.6182Z" fill="#DB2F38"/>
<path d="M68.6831 88.6182C68.6831 104.896 55.4873 118.092 39.2095 118.092C22.9316 118.092 9.73584 104.896 9.73584 88.6182C9.73584 72.3403 22.9316 59.1445 39.2095 59.1445C55.4873 59.1445 68.6831 72.3403 68.6831 88.6182Z" fill="#1840B2"/>
<path d="M68.6831 147.565C68.6831 163.843 55.4873 177.039 39.2095 177.039C22.9316 177.039 9.73584 163.843 9.73584 147.565C9.73584 131.288 22.9316 118.092 39.2095 118.092C55.4873 118.092 68.6831 131.288 68.6831 147.565Z" fill="#4C9A30"/>
<path d="M17.4246 176.185C17.4246 160.778 11.2141 146.001 0.159331 135.107C-10.8954 124.212 -25.8889 118.092 -41.5227 118.092C-57.1565 118.092 -72.1499 124.212 -83.2047 135.107C-94.2595 146.001 -100.47 160.778 -100.47 176.185L-41.5227 176.185L17.4246 176.185Z" fill="#01BABB"/>
<path d="M-41.5227 59.1445C-26.1155 59.1445 -11.3393 52.9341 -0.444735 41.8793C10.4498 30.8245 16.5703 15.8311 16.5703 0.197281C16.5703 -15.4365 10.4498 -30.43 -0.444721 -41.4847C-11.3393 -52.5395 -26.1154 -58.75 -41.5226 -58.75L-41.5227 0.197271L-41.5227 59.1445Z" fill="#FED639"/>
<path d="M239.75 -6.89339C233.916 -6.89339 228.139 -5.74433 222.749 -3.51181C217.36 -1.2793 212.462 1.99295 208.337 6.11811C204.212 10.2433 200.94 15.1405 198.707 20.5303C196.475 25.9201 195.326 31.6968 195.326 37.5306L239.75 37.5306L239.75 -6.89339Z" fill="#DB2F38"/>
<rect x="195.326" y="99.8951" width="44.424" height="129.855" fill="#01BABB"/>
<rect x="195.326" y="37.5306" width="44.424" height="62.3645" fill="#DB2F38"/>
<rect x="150.902" y="99.8951" width="44.424" height="129.855" fill="#FED639"/>
</g>
<path fill-rule="evenodd" clip-rule="evenodd" d="M59.4929 62.7581C62.7277 63.199 65.5239 64.8524 67.4977 67.4428C69.4715 70.0333 70.2939 73.2299 69.8553 76.3715C69.4166 79.6233 67.7718 82.4341 65.1949 84.4183C62.6181 86.4024 59.4381 87.2292 56.2581 86.7882L42.3867 84.9143C40.0292 84.5836 37.9457 83.2609 36.7395 81.2216L33.1209 75.2141C32.0244 73.3953 31.6954 71.1356 32.2985 69.0963L35.8075 56.7505C37.6716 50.3572 44.3605 46.6093 50.7753 48.4833C53.9005 49.3651 56.4774 51.4044 58.0126 54.2703C59.4381 56.8607 59.8219 59.837 59.2188 62.7029L59.4929 62.7581ZM49.624 52.4515C45.4023 51.1839 40.9612 53.6641 39.755 57.9079L35.5881 72.4583C39.755 65.9547 47.1567 61.9865 55.1067 62.3171C55.655 60.2779 55.3808 58.1284 54.3939 56.3096C53.3522 54.4357 51.6526 53.0578 49.624 52.4515ZM37.4523 77.7494C40.1388 70.9702 46.6085 66.4508 53.8457 66.3405C51.1591 73.1748 44.5798 77.6391 37.4523 77.7494ZM56.8064 82.7097C58.9446 83.0404 61.0281 82.4893 62.7277 81.1665C64.4274 79.8988 65.5239 77.9698 65.7432 75.8203C66.0722 73.6708 65.4691 71.5765 64.208 69.8679C62.947 68.1593 61.0281 67.057 58.9446 66.7815L58.0674 66.6712C55.7098 73.726 50.1722 78.8517 43.4833 80.8909L56.8064 82.7097Z" fill="url(#paint0_linear_7_607)"/>
<path d="M84.878 97.5908V101.945H86.468V96.9294C86.468 95.3311 87.5097 94.0634 89.1545 94.0634C90.5252 94.0634 91.3476 94.8902 91.3476 96.6538V101.945H92.9376V96.5436C92.9376 93.843 91.6766 92.5753 89.5931 92.5753C88.3321 92.5753 87.2356 93.1816 86.5776 94.2839H86.468L86.3035 92.7407H84.7683C84.878 94.339 84.878 95.9373 84.878 97.5908Z" fill="#1E1B4D"/>
<path fill-rule="evenodd" clip-rule="evenodd" d="M102.916 97.8113H96.2272C96.3917 99.5749 97.4334 100.677 98.9686 100.677C100.01 100.677 100.778 100.236 101.326 99.134L102.752 99.6301C102.094 101.173 100.778 102 98.9686 102C96.2821 102 94.5824 99.9056 94.5824 97.2601C94.5824 94.6146 96.2272 92.5202 98.9138 92.5202C101.326 92.5202 102.971 94.1737 102.971 97.0396C102.971 97.1499 102.957 97.2877 102.944 97.4254C102.93 97.5632 102.916 97.701 102.916 97.8113ZM96.2272 96.4885H101.436C101.271 94.7799 100.339 93.843 98.9138 93.843C97.4334 93.843 96.4466 94.8902 96.2272 96.4885Z" fill="#1E1B4D"/>
<path d="M105.603 94.0083V99.4096C105.603 101.118 106.59 102 108.07 102C108.783 102 109.386 101.835 110.099 101.394L109.605 100.291C109.167 100.567 108.783 100.677 108.344 100.677C107.686 100.677 107.193 100.236 107.193 99.3545V94.0083H109.824V92.6856H107.193V90.1503H106.096L105.712 92.6856H103.793V94.0083H105.603Z" fill="#1E1B4D"/>
<path d="M113.224 101.835L110.702 92.6856H112.347L114.211 100.016H114.32L116.075 92.6856H118.049L119.748 100.016H119.858L121.722 92.6856H123.312L120.79 101.835H118.816L117.062 94.2839H116.952L115.143 101.835H113.224Z" fill="#1E1B4D"/>
<path fill-rule="evenodd" clip-rule="evenodd" d="M128.301 92.5202C125.56 92.5202 123.915 94.6146 123.915 97.2601C123.915 99.9056 125.615 102 128.301 102C131.043 102 132.687 99.9056 132.687 97.2601C132.687 94.6146 130.988 92.5202 128.301 92.5202ZM128.301 93.9532C129.946 93.9532 131.043 95.276 131.043 97.2601C131.043 99.2442 129.946 100.567 128.301 100.567C126.656 100.567 125.56 99.2442 125.56 97.2601C125.56 95.276 126.656 93.9532 128.301 93.9532Z" fill="#1E1B4D"/>
<path d="M139.651 92.5202V94.0634H138.993C137.567 94.0634 136.032 94.9453 136.032 97.6459V101.835H134.442V97.5908C134.442 95.9373 134.442 94.339 134.332 92.7407H135.867L136.087 94.5595H136.196C136.745 93.2918 137.732 92.5753 138.993 92.5753C139.157 92.5202 139.322 92.5202 139.651 92.5202Z" fill="#1E1B4D"/>
<path d="M140.966 89.2684V101.835H142.502V97.2601L146.614 101.835H148.752L144.421 97.0396L148.697 92.6856H146.614L142.556 97.0396V89.2684H140.966Z" fill="#1E1B4D"/>
<path fill-rule="evenodd" clip-rule="evenodd" d="M82.1914 59.7818C82.1914 59.1756 82.4108 58.6795 82.7945 58.3489C83.1783 58.0182 83.7266 57.8528 84.3845 57.8528C84.6717 57.8528 84.9589 57.8948 85.2826 57.9422L85.2838 57.9423C85.3305 57.9492 85.378 57.9561 85.4263 57.963C85.7552 58.0182 86.0842 58.1284 86.3035 58.2386V68.5451C86.9614 67.6633 87.8387 67.0019 88.8256 66.5059C89.8673 66.0099 91.0187 65.7894 92.3345 65.7894C94.0342 65.7894 95.5693 66.1752 96.94 67.0019C98.3107 67.8287 99.4072 68.931 100.23 70.3639C101.052 71.7969 101.436 73.3953 101.436 75.2692C101.436 77.088 100.997 78.7414 100.175 80.1744C99.3524 81.6074 98.201 82.7097 96.7207 83.5364C95.2404 84.3632 93.5407 84.749 91.6218 84.749C89.7028 84.749 88.058 84.3632 86.6325 83.5364C85.207 82.7097 84.1652 81.5523 83.3976 79.954C82.6301 78.4107 82.2463 76.5368 82.2463 74.3873V59.7818H82.1914ZM95.6242 71.0253C94.5824 69.9781 93.2666 69.427 91.6766 69.427C90.0866 69.427 88.7159 69.9781 87.729 71.0253C86.6873 72.0725 86.1938 73.5055 86.1938 75.2692C86.1938 77.0329 86.6873 78.4107 87.729 79.5131C88.7707 80.5602 90.0866 81.1114 91.6766 81.1114C93.2666 81.1114 94.5824 80.5602 95.6242 79.5131C96.6659 78.4659 97.1593 77.0329 97.1593 75.2692C97.1593 73.5055 96.6659 72.0725 95.6242 71.0253Z" fill="#1E1B4D"/>
<path fill-rule="evenodd" clip-rule="evenodd" d="M107.906 83.5916C109.386 84.3632 111.031 84.749 112.895 84.749C113.63 84.749 114.408 84.661 115.27 84.5636L115.271 84.5635C115.373 84.5519 115.477 84.5402 115.581 84.5285C116.459 84.3632 117.336 84.1427 118.103 83.8671C118.926 83.5916 119.529 83.2609 120.077 82.9302L118.597 80.0642C117.171 80.8909 115.527 81.3318 113.772 81.3318C112.127 81.3318 110.811 80.946 109.715 80.2295C108.618 79.4579 107.96 78.4659 107.796 77.2533C108.009 77.2533 108.234 77.2663 108.467 77.2797C108.713 77.2938 108.967 77.3084 109.221 77.3084H110.428C113.991 77.3084 116.623 76.8675 118.268 75.9306C119.913 74.9936 120.735 73.6157 120.735 71.7418C120.735 69.923 120.022 68.4349 118.597 67.3877C117.171 66.3405 115.362 65.7894 113.059 65.7894C111.195 65.7894 109.55 66.1752 108.07 67.0019C106.59 67.8287 105.438 68.9861 104.616 70.4191C103.793 71.9072 103.355 73.5606 103.355 75.4345C103.355 77.3084 103.739 78.9619 104.561 80.3398C105.329 81.7177 106.48 82.82 107.906 83.5916ZM109.112 70.4742C110.099 69.427 111.36 68.931 112.95 68.931C114.046 68.931 114.978 69.2065 115.636 69.7026C116.349 70.1986 116.678 70.86 116.678 71.6867C116.678 73.5606 114.649 74.4976 110.537 74.4976H108.783C108.556 74.4976 108.329 74.4829 108.11 74.4686C107.906 74.4553 107.707 74.4425 107.522 74.4425C107.577 72.789 108.125 71.4662 109.112 70.4742Z" fill="#1E1B4D"/>
<path d="M128.521 59.7818C128.521 59.1756 128.74 58.6795 129.124 58.3489C129.507 58.0182 130.056 57.8528 130.714 57.8528C131.001 57.8528 131.288 57.8948 131.612 57.9422C131.659 57.949 131.707 57.956 131.755 57.963C132.084 58.0182 132.413 58.1284 132.633 58.2386V72.8441L140.034 67.3877C140.637 66.8917 141.241 66.6161 141.734 66.4508C142.282 66.2854 142.721 66.2303 143.105 66.2303C143.763 66.2303 144.311 66.3405 144.695 66.6161C145.078 66.8917 145.407 67.2224 145.572 67.6082C145.331 67.8503 144.973 68.1219 144.518 68.4663C144.352 68.5923 144.173 68.7283 143.982 68.8758C143.778 69.0338 143.569 69.1964 143.354 69.3635L143.343 69.372L143.342 69.3729C142.811 69.7859 142.245 70.2264 141.624 70.6946C140.747 71.3559 139.87 72.0175 138.993 72.6237C138.725 72.8084 138.463 72.9931 138.208 73.1732C137.624 73.584 137.076 73.9706 136.58 74.2771C138.389 75.655 140.199 77.1982 141.898 78.9619C143.598 80.7256 145.078 82.4342 146.285 84.1427H141.241C140.583 83.316 139.815 82.4893 138.938 81.5523C138.006 80.6153 137.019 79.6784 135.977 78.7414C134.881 77.8045 133.784 76.9226 132.633 76.0959V84.1978H128.575V59.7818H128.521Z" fill="#1E1B4D"/>
<path d="M148.149 60.7739C148.149 61.4904 148.423 62.0416 148.862 62.5376C149.3 63.0336 149.903 63.2541 150.616 63.2541C151.329 63.2541 151.932 63.0336 152.371 62.5376C152.864 62.0967 153.083 61.4904 153.083 60.7739C153.083 60.0574 152.809 59.5063 152.371 59.0102C151.932 58.5142 151.329 58.2937 150.616 58.2937C149.903 58.2937 149.3 58.5142 148.862 59.0102C148.368 59.4512 148.149 60.0574 148.149 60.7739Z" fill="#1E1B4D"/>
<path d="M148.587 68.2145V84.2529H152.699V66.6712C152.48 66.561 152.151 66.4508 151.822 66.3957C151.774 66.3887 151.726 66.3817 151.679 66.3748C151.355 66.3274 151.068 66.2854 150.781 66.2854C150.123 66.2854 149.574 66.4508 149.191 66.7815C148.807 67.1122 148.587 67.6082 148.587 68.2145Z" fill="#1E1B4D"/>
<path d="M156.976 73.3953C156.976 71.8521 157.36 70.5293 158.073 69.3719C158.785 68.2145 159.827 67.3326 161.088 66.7264C162.404 66.1201 163.884 65.7894 165.639 65.7894C167.393 65.7894 168.928 66.1201 170.189 66.7264C171.505 67.3326 172.492 68.2696 173.205 69.3719C173.918 70.5293 174.301 71.8521 174.301 73.3953V84.2529H170.244V74.4425C170.244 72.8441 169.86 71.5765 169.093 70.7498C168.325 69.923 167.174 69.4821 165.639 69.4821C162.568 69.4821 161.033 71.1356 161.033 74.4425V84.2529H156.976V73.3953Z" fill="#1E1B4D"/>
<path fill-rule="evenodd" clip-rule="evenodd" d="M195.794 79.954C196.561 78.3556 196.945 76.5368 196.945 74.3873H197V58.2386C196.781 58.1284 196.452 58.0182 196.123 57.963C196.074 57.956 196.026 57.949 195.979 57.9422C195.655 57.8948 195.368 57.8528 195.081 57.8528C194.423 57.8528 193.875 58.0182 193.491 58.3489C193.107 58.6795 192.888 59.1756 192.888 59.7818V68.5451C192.23 67.6633 191.408 67.0019 190.366 66.5059C189.324 66.0099 188.173 65.7894 186.857 65.7894C185.157 65.7894 183.622 66.1752 182.251 67.0019C180.881 67.8287 179.784 68.931 178.962 70.3639C178.139 71.7969 177.756 73.4504 177.756 75.2692C177.756 77.088 178.194 78.7414 179.017 80.1744C179.839 81.6074 180.99 82.7097 182.471 83.5364C183.896 84.3632 185.651 84.749 187.57 84.749C189.489 84.749 191.133 84.3632 192.559 83.5364C193.93 82.7097 195.026 81.4972 195.794 79.954ZM181.922 75.2692C181.922 73.5055 182.416 72.0725 183.458 71.0253C184.499 69.923 185.815 69.427 187.405 69.427C188.995 69.427 190.311 69.9781 191.353 71.0253C192.395 72.1276 192.888 73.5055 192.888 75.2692C192.888 77.0329 192.395 78.4659 191.353 79.5131C190.366 80.5602 188.995 81.1114 187.405 81.1114C185.815 81.1114 184.499 80.5602 183.458 79.5131C182.416 78.4107 181.922 77.0329 181.922 75.2692Z" fill="#1E1B4D"/>
</g>
<defs>
<linearGradient id="paint0_linear_7_607" x1="26.0505" y1="51.5735" x2="26.2066" y2="86.3236" gradientUnits="userSpaceOnUse">
<stop offset="0.0142609" stop-color="#4553FF"/>
<stop offset="0.4792" stop-color="#00C2C2"/>
<stop offset="0.9609" stop-color="#FEDB40"/>
</linearGradient>
<clipPath id="clip0_7_607">
<rect width="230" height="151" fill="white"/>
</clipPath>
<clipPath id="clip1_7_607">
<rect width="324" height="230" fill="white" transform="translate(230 -147) rotate(90)"/>
</clipPath>
</defs>
</svg>
