<svg width="217" height="71" viewBox="0 0 217 71" fill="none" xmlns="http://www.w3.org/2000/svg">
<path fill-rule="evenodd" clip-rule="evenodd" d="M36.1573 19.4041C40.4116 19.9838 44.089 22.1578 46.6848 25.5637C49.2807 28.9696 50.3623 33.1727 49.7854 37.3032C49.2086 41.5788 47.0454 45.2745 43.6564 47.8833C40.2674 50.4921 36.0852 51.5791 31.903 50.9993L13.6601 48.5355C10.5596 48.1007 7.81953 46.3615 6.23319 43.6803L1.47417 35.7815C0.0320474 33.3901 -0.400591 30.419 0.392579 27.7377L5.00738 11.5053C7.459 3.09924 16.256 -1.82845 24.6924 0.635396C28.8025 1.79485 32.1915 4.4761 34.2104 8.24434C36.0852 11.6502 36.59 15.5634 35.7968 19.3317L36.1573 19.4041ZM23.1782 5.85296C17.626 4.18624 11.7854 7.44721 10.199 13.0271L4.71896 32.1582C10.199 23.6072 19.9334 18.3896 30.3888 18.8244C31.1099 16.1431 30.7493 13.317 29.4514 10.9256C28.0814 8.46173 25.8461 6.65008 23.1782 5.85296ZM7.17057 39.1149C10.7038 30.2016 19.2123 24.2593 28.7304 24.1144C25.1972 33.1002 16.5444 38.97 7.17057 39.1149ZM32.6241 45.6369C35.4363 46.0716 38.1763 45.347 40.4116 43.6078C42.6469 41.9411 44.089 39.4048 44.3774 36.5786C44.8101 33.7524 44.0169 30.9987 42.3585 28.7523C40.7 26.5058 38.1763 25.0565 35.4363 24.6941L34.2826 24.5492C31.182 33.8249 23.8992 40.5642 15.1023 43.2455L32.6241 45.6369Z" fill="url(#paint0_linear_1_314)"/>
<path d="M69.5426 65.2027V70.9275H71.6337V64.3331C71.6337 62.2316 73.0037 60.5649 75.1669 60.5649C76.9695 60.5649 78.0511 61.6519 78.0511 63.9708V70.9275H80.1422V63.8259C80.1422 60.275 78.4837 58.6083 75.7437 58.6083C74.0853 58.6083 72.6431 59.4054 71.7779 60.8547H71.6337L71.4173 58.8257H69.3984C69.5426 60.9272 69.5426 63.0287 69.5426 65.2027Z" fill="#1E1B4D"/>
<path fill-rule="evenodd" clip-rule="evenodd" d="M93.2655 65.4926H84.4686C84.6849 67.8115 86.0549 69.2608 88.0739 69.2608C89.4439 69.2608 90.4534 68.6811 91.1745 67.2318L93.0492 67.884C92.1839 69.913 90.4534 71 88.0739 71C84.5407 71 82.3054 68.2463 82.3054 64.7679C82.3054 61.2895 84.4686 58.5358 88.0018 58.5358C91.1745 58.5358 93.3376 60.7098 93.3376 64.4781C93.3376 64.623 93.3196 64.8041 93.3016 64.9853C93.2836 65.1665 93.2655 65.3476 93.2655 65.4926ZM84.4686 63.7534H91.3187C91.1023 61.5069 89.8765 60.275 88.0018 60.275C86.0549 60.275 84.757 61.6519 84.4686 63.7534Z" fill="#1E1B4D"/>
<path d="M96.7987 60.4924V67.5941C96.7987 69.8405 98.0967 71 100.044 71C100.981 71 101.774 70.7826 102.711 70.2029L102.063 68.7535C101.486 69.1159 100.981 69.2608 100.404 69.2608C99.5388 69.2608 98.8898 68.6811 98.8898 67.5216V60.4924H102.351V58.7532H98.8898V55.4198H97.4477L96.943 58.7532H94.4192V60.4924H96.7987Z" fill="#1E1B4D"/>
<path d="M106.822 70.7826L103.505 58.7532H105.668L108.119 68.3912H108.264L110.571 58.7532H113.167L115.402 68.3912H115.546L117.998 58.7532H120.089L116.772 70.7826H114.176L111.869 60.8547H111.725L109.345 70.7826H106.822Z" fill="#1E1B4D"/>
<path fill-rule="evenodd" clip-rule="evenodd" d="M126.651 58.5358C123.045 58.5358 120.882 61.2895 120.882 64.7679C120.882 68.2463 123.118 71 126.651 71C130.256 71 132.419 68.2463 132.419 64.7679C132.419 61.2895 130.184 58.5358 126.651 58.5358ZM126.651 60.4199C128.814 60.4199 130.256 62.1591 130.256 64.7679C130.256 67.3767 128.814 69.1159 126.651 69.1159C124.488 69.1159 123.045 67.3767 123.045 64.7679C123.045 62.1591 124.488 60.4199 126.651 60.4199Z" fill="#1E1B4D"/>
<path d="M141.577 58.5358V60.5649H140.712C138.837 60.5649 136.818 61.7243 136.818 65.2752V70.7826H134.727V65.2027C134.727 63.0287 134.727 60.9272 134.582 58.8257H136.601L136.89 61.2171H137.034C137.755 59.5504 139.053 58.6083 140.712 58.6083C140.928 58.5358 141.144 58.5358 141.577 58.5358Z" fill="#1E1B4D"/>
<path d="M143.307 54.2603V70.7826H145.326V64.7679L150.734 70.7826H153.546L147.85 64.4781L153.474 58.7532H150.734L145.398 64.4781V54.2603H143.307Z" fill="#1E1B4D"/>
<path fill-rule="evenodd" clip-rule="evenodd" d="M66.0094 15.4909C66.0094 14.6938 66.2978 14.0416 66.8025 13.6068C67.3073 13.172 68.0283 12.9546 68.8936 12.9546C69.2713 12.9546 69.649 13.0099 70.0746 13.0721L70.0763 13.0723C70.1377 13.0813 70.2001 13.0904 70.2636 13.0996C70.6963 13.172 71.1289 13.317 71.4173 13.4619V27.0131C72.2826 25.8536 73.4363 24.984 74.7342 24.3318C76.1042 23.6796 77.6185 23.3898 79.349 23.3898C81.5843 23.3898 83.6033 23.897 85.406 24.984C87.2086 26.071 88.6507 27.5203 89.7323 29.4044C90.8139 31.2886 91.3187 33.3901 91.3187 35.8539C91.3187 38.2453 90.7418 40.4193 89.6602 42.3034C88.5786 44.1875 87.0644 45.6369 85.1175 46.7239C83.1707 47.8108 80.9354 48.3181 78.4116 48.3181C75.8879 48.3181 73.7247 47.8108 71.85 46.7239C69.9752 45.6369 68.6052 44.1151 67.5957 42.0136C66.5862 39.9845 66.0815 37.5207 66.0815 34.6945V15.4909H66.0094ZM83.6754 30.274C82.3054 28.8972 80.5748 28.1725 78.4837 28.1725C76.3927 28.1725 74.59 28.8972 73.2921 30.274C71.9221 31.6509 71.2731 33.535 71.2731 35.8539C71.2731 38.1728 71.9221 39.9845 73.2921 41.4338C74.6621 42.8107 76.3927 43.5353 78.4837 43.5353C80.5748 43.5353 82.3054 42.8107 83.6754 41.4338C85.0454 40.057 85.6944 38.1728 85.6944 35.8539C85.6944 33.535 85.0454 31.6509 83.6754 30.274Z" fill="#1E1B4D"/>
<path fill-rule="evenodd" clip-rule="evenodd" d="M99.8272 46.7963C101.774 47.8108 103.937 48.3181 106.389 48.3181C107.355 48.3181 108.379 48.2024 109.512 48.0744L109.514 48.0742C109.649 48.059 109.785 48.0436 109.922 48.0282C111.076 47.8108 112.23 47.521 113.239 47.1587C114.321 46.7963 115.114 46.3615 115.835 45.9267L113.888 42.1585C112.013 43.2455 109.85 43.8252 107.543 43.8252C105.379 43.8252 103.649 43.3179 102.207 42.3759C100.765 41.3614 99.8993 40.057 99.683 38.4627C99.9629 38.4627 100.26 38.4798 100.566 38.4973C100.89 38.516 101.224 38.5352 101.558 38.5352H103.144C107.831 38.5352 111.292 37.9555 113.455 36.7235C115.619 35.4916 116.7 33.68 116.7 31.2161C116.7 28.8247 115.763 26.8681 113.888 25.4913C112.013 24.1144 109.634 23.3898 106.605 23.3898C104.154 23.3898 101.99 23.897 100.044 24.984C98.0967 26.071 96.5825 27.5928 95.5008 29.4769C94.4193 31.4335 93.8424 33.6075 93.8424 36.0713C93.8424 38.5352 94.3471 40.7092 95.4287 42.5208C96.4382 44.3325 97.9525 45.7818 99.8272 46.7963ZM101.414 29.5494C102.711 28.1725 104.37 27.5203 106.461 27.5203C107.903 27.5203 109.129 27.8827 109.994 28.5349C110.932 29.187 111.364 30.0566 111.364 31.1436C111.364 33.6075 108.696 34.8394 103.288 34.8394H100.981C100.683 34.8394 100.385 34.8201 100.097 34.8014C99.8273 34.7839 99.5664 34.7669 99.3225 34.7669C99.3946 32.593 100.116 30.8538 101.414 29.5494Z" fill="#1E1B4D"/>
<path d="M126.939 15.4909C126.939 14.6938 127.228 14.0416 127.732 13.6068C128.237 13.172 128.958 12.9546 129.823 12.9546C130.201 12.9546 130.579 13.0099 131.004 13.0721C131.066 13.0812 131.129 13.0904 131.193 13.0996C131.626 13.172 132.059 13.317 132.347 13.4619V32.6654L142.082 25.4913C142.875 24.8391 143.668 24.4767 144.317 24.2594C145.038 24.042 145.615 23.9695 146.119 23.9695C146.985 23.9695 147.706 24.1144 148.211 24.4767C148.715 24.8391 149.148 25.2739 149.364 25.7811C149.048 26.0994 148.576 26.4566 147.979 26.9094C147.76 27.075 147.524 27.2539 147.273 27.4479C147.004 27.6556 146.73 27.8693 146.447 28.089L146.433 28.1002L146.431 28.1014C145.734 28.6444 144.989 29.2237 144.173 29.8392C143.019 30.7087 141.865 31.5785 140.711 32.3756C140.36 32.6184 140.015 32.8613 139.679 33.0981C138.912 33.6382 138.19 34.1465 137.539 34.5495C139.918 36.3612 142.298 38.3902 144.533 40.7092C146.768 43.0281 148.715 45.2745 150.302 47.521H143.668C142.803 46.434 141.793 45.347 140.639 44.1151C139.414 42.8831 138.116 41.6512 136.746 40.4193C135.304 39.1874 133.861 38.0279 132.347 36.9409V47.5934H127.011V15.4909H126.939Z" fill="#1E1B4D"/>
<path d="M152.753 16.7953C152.753 17.7374 153.114 18.4621 153.691 19.1143C154.268 19.7665 155.061 20.0563 155.998 20.0563C156.935 20.0563 157.729 19.7665 158.305 19.1143C158.954 18.5345 159.243 17.7374 159.243 16.7953C159.243 15.8533 158.882 15.1286 158.305 14.4764C157.729 13.8242 156.935 13.5344 155.998 13.5344C155.061 13.5344 154.268 13.8242 153.691 14.4764C153.042 15.0562 152.753 15.8533 152.753 16.7953Z" fill="#1E1B4D"/>
<path d="M153.33 26.5783V47.6659H158.738V24.5492C158.45 24.4043 158.017 24.2593 157.584 24.1869C157.52 24.1777 157.457 24.1685 157.395 24.1594C156.97 24.0972 156.592 24.042 156.214 24.042C155.349 24.042 154.628 24.2593 154.123 24.6941C153.619 25.1289 153.33 25.7811 153.33 26.5783Z" fill="#1E1B4D"/>
<path d="M164.362 33.3901C164.362 31.361 164.867 29.6218 165.805 28.1001C166.742 26.5783 168.112 25.4188 169.77 24.6217C171.501 23.8246 173.448 23.3898 175.755 23.3898C178.063 23.3898 180.082 23.8246 181.74 24.6217C183.471 25.4188 184.768 26.6507 185.706 28.1001C186.643 29.6218 187.148 31.361 187.148 33.3901V47.6659H181.812V34.7669C181.812 32.6654 181.307 30.9987 180.298 29.9117C179.288 28.8247 177.774 28.245 175.755 28.245C171.717 28.245 169.698 30.419 169.698 34.7669V47.6659H164.362V33.3901Z" fill="#1E1B4D"/>
<path fill-rule="evenodd" clip-rule="evenodd" d="M215.414 42.0136C216.423 39.912 216.928 37.5207 216.928 34.6945H217V13.4619C216.712 13.317 216.279 13.172 215.846 13.0996C215.782 13.0904 215.719 13.0812 215.657 13.0721C215.232 13.0099 214.854 12.9546 214.476 12.9546C213.611 12.9546 212.89 13.172 212.385 13.6068C211.88 14.0416 211.592 14.6938 211.592 15.4909V27.0131C210.727 25.8536 209.645 24.984 208.275 24.3318C206.905 23.6796 205.391 23.3898 203.66 23.3898C201.425 23.3898 199.406 23.897 197.603 24.984C195.801 26.071 194.359 27.5203 193.277 29.4044C192.195 31.2886 191.691 33.4626 191.691 35.8539C191.691 38.2453 192.268 40.4193 193.349 42.3034C194.431 44.1875 195.945 45.6369 197.892 46.7239C199.767 47.8108 202.074 48.3181 204.598 48.3181C207.121 48.3181 209.285 47.8108 211.159 46.7239C212.962 45.6369 214.404 44.0426 215.414 42.0136ZM197.171 35.8539C197.171 33.535 197.82 31.6509 199.19 30.274C200.56 28.8247 202.29 28.1725 204.381 28.1725C206.472 28.1725 208.203 28.8972 209.573 30.274C210.943 31.7234 211.592 33.535 211.592 35.8539C211.592 38.1728 210.943 40.057 209.573 41.4338C208.275 42.8107 206.472 43.5353 204.381 43.5353C202.29 43.5353 200.56 42.8107 199.19 41.4338C197.82 39.9845 197.171 38.1728 197.171 35.8539Z" fill="#1E1B4D"/>
<defs>
<linearGradient id="paint0_linear_1_314" x1="-7.82452" y1="4.69853" x2="-7.61936" y2="50.3884" gradientUnits="userSpaceOnUse">
<stop offset="0.0142609" stop-color="#4553FF"/>
<stop offset="0.4792" stop-color="#00C2C2"/>
<stop offset="0.9609" stop-color="#FEDB40"/>
</linearGradient>
</defs>
</svg>
