<svg width="16" height="17" viewBox="0 0 16 17" fill="none" xmlns="http://www.w3.org/2000/svg">
<path d="M8 12.0226C9.10457 12.0226 10 10.3094 10 8.19596C10 6.08255 9.10457 4.3693 8 4.3693C6.89544 4.3693 6 6.08255 6 8.19596C6 10.3094 6.89544 12.0226 8 12.0226Z" fill="#28272A"/>
<path d="M6.02667 11.4426C5.80667 11.496 5.57334 11.5293 5.33334 11.5293C3.49334 11.5293 2.00001 10.036 2.00001 8.19596C2.00001 6.35596 3.49334 4.86263 5.33334 4.86263C5.57334 4.86263 5.80667 4.89596 6.02667 4.9493C6.28667 4.57596 6.61334 4.20263 7.02 3.86263C6.5 3.65596 5.93334 3.5293 5.33334 3.5293C2.76 3.5293 0.666672 5.62263 0.666672 8.19596C0.666672 10.7693 2.76 12.8626 5.33334 12.8626C5.93334 12.8626 6.5 12.736 7.02 12.5293C6.61334 12.1893 6.28667 11.816 6.02667 11.4426Z" fill="#28272A"/>
<path d="M10.6667 3.5293C10.0667 3.5293 9.5 3.65596 8.98 3.86263C9.38667 4.20263 9.71334 4.57596 9.97334 4.9493C10.1933 4.89596 10.4267 4.86263 10.6667 4.86263C12.5067 4.86263 14 6.35596 14 8.19596C14 10.036 12.5067 11.5293 10.6667 11.5293C10.4267 11.5293 10.1933 11.496 9.97334 11.4426C9.71334 11.816 9.38667 12.1893 8.98 12.5293C9.5 12.736 10.0667 12.8626 10.6667 12.8626C13.24 12.8626 15.3333 10.7693 15.3333 8.19596C15.3333 5.62263 13.24 3.5293 10.6667 3.5293Z" fill="#28272A"/>
</svg>
