<svg width="100" height="33" viewBox="0 0 100 33" fill="none" xmlns="http://www.w3.org/2000/svg">
<path d="M40.5535 27.2073C42.0155 27.2073 43.0125 28.2176 43.0125 29.969C43.0124 30.1037 42.9792 30.3061 42.9792 30.4407H38.9255C39.0253 31.5181 39.6566 32.1915 40.5867 32.1917C41.218 32.1917 41.6831 31.9219 42.0154 31.2483L42.8796 31.552C42.4809 32.4949 41.6831 33.0002 40.5867 33.0002C38.9588 33.0001 37.9286 31.7202 37.9285 30.1038C37.9285 28.4871 38.9254 27.2074 40.5535 27.2073ZM58.364 27.2073C59.9922 27.2073 61.0222 28.4871 61.0222 30.1038C61.0221 31.7203 60.0253 33.0002 58.364 33.0002C56.7361 33.0001 55.706 31.7202 55.7058 30.1038C55.7058 28.4872 56.7028 27.2075 58.364 27.2073ZM45.571 27.3079H47.1667V28.1155H45.571V31.3831C45.5711 31.9219 45.8706 32.1917 46.2693 32.1917C46.535 32.1916 46.7673 32.1236 47.033 31.9553L47.3328 32.6292C46.9009 32.8985 46.5351 32.9992 46.1033 32.9993C45.2061 32.9993 44.6072 32.4604 44.6072 31.4163V28.1155H43.5115V27.3079H44.6746L44.907 25.7581H45.571V27.3079ZM34.905 27.2405C36.1676 27.2405 36.9313 28.0152 36.9314 29.6653V32.9661H35.9685V29.7327C35.9684 28.6552 35.4698 28.1498 34.6394 28.1497C33.6425 28.1497 33.0105 28.9249 33.0105 29.9016V32.9661H32.0476V30.3059C32.0476 29.2955 32.0477 28.3178 31.9812 27.3411H32.9109L33.0105 28.2844H33.0769C33.4757 27.6108 34.1408 27.2405 34.905 27.2405ZM49.825 31.7874H49.8914L50.9548 27.3079H52.1501L53.1804 31.7874H53.2468L54.3767 27.3079H55.3406L53.8123 32.8987H52.616L51.5525 28.2844H51.4861L50.3894 32.8987H49.2263L47.698 27.3079H48.6951L49.825 31.7874ZM65.2429 28.1497H64.8435C63.9797 28.1499 63.0496 28.6891 63.0496 30.3391V32.8987H62.0857V30.3059C62.0857 29.2955 62.0857 28.3178 62.0193 27.3411H62.95L63.0828 28.4534H63.1492C63.4814 27.6789 64.0795 27.2407 64.8435 27.2405C64.9432 27.2068 65.0435 27.2073 65.2429 27.2073V28.1497ZM67.0037 29.969L69.4626 27.3079H70.7253L68.1335 29.969L70.7585 32.8987H69.4626L66.9705 30.1038V32.8987H66.0398V25.22H67.0037V29.969ZM58.364 28.0823C57.3673 28.0825 56.7029 28.8914 56.7029 30.1038C56.703 31.316 57.3674 32.1241 58.364 32.1243C59.3608 32.1243 60.026 31.3161 60.0261 30.1038C60.0261 28.8912 59.3609 28.0823 58.364 28.0823ZM40.5535 28.0149C39.6565 28.015 39.0584 28.6554 38.9255 29.6321H42.0828C41.9831 28.588 41.4174 28.0149 40.5535 28.0149ZM2.30737 5.3479C3.43712 1.44095 7.49099 -0.8498 11.3787 0.295166C13.2727 0.834069 14.835 2.08084 15.7654 3.83228C16.6291 5.4152 16.8613 7.23432 16.4958 8.9856L16.6619 9.0188C18.6224 9.28825 20.3172 10.2991 21.5134 11.8821C22.7096 13.4651 23.208 15.4183 22.9421 17.3381C22.6763 19.3253 21.6796 21.0426 20.1179 22.2551C18.5562 23.4676 16.6291 23.9737 14.7019 23.7043L6.29468 22.5588C4.86599 22.3567 3.6038 21.5481 2.8728 20.302L0.679443 16.6311C0.014869 15.5196 -0.185096 14.1381 0.18042 12.8918L2.30737 5.3479ZM31.7478 6.02075C31.9472 6.02075 32.147 6.05445 32.3796 6.08813C32.5789 6.12181 32.778 6.18975 32.9109 6.25708V12.5549C33.3096 12.0162 33.8413 11.6119 34.4392 11.3088C35.0705 11.0057 35.7687 10.8714 36.5662 10.8713C37.5962 10.8713 38.5265 11.1074 39.3572 11.6125C40.1879 12.1178 40.8529 12.7915 41.3513 13.6672C41.8496 14.5428 42.0827 15.5194 42.0828 16.6643C42.0828 17.7758 41.8165 18.7866 41.3181 19.6624C40.8197 20.538 40.1215 21.2118 39.2244 21.717C38.3273 22.2221 37.2973 22.4573 36.1345 22.4573C34.9715 22.4573 33.9741 22.2223 33.1101 21.717C32.2463 21.2119 31.6153 20.5042 31.1501 19.5276C30.6849 18.5845 30.4519 17.4388 30.4519 16.1252V7.20044H30.4187C30.4187 6.82994 30.5523 6.52655 30.7849 6.32446C31.0174 6.12252 31.3493 6.02081 31.7478 6.02075ZM49.1267 10.8713C50.5223 10.8713 51.6192 11.208 52.4832 11.8479C53.347 12.4878 53.7791 13.3976 53.7791 14.509C53.779 15.654 53.2805 16.496 52.2839 17.0686C51.2871 17.6412 49.6918 17.9104 47.532 17.9104H46.8005C46.5017 17.9104 46.2029 17.8772 45.9373 17.8772C46.037 18.6179 46.4351 19.2241 47.0994 19.6956C47.7639 20.1334 48.5617 20.3693 49.5583 20.3694C50.6217 20.3694 51.6192 20.1002 52.4832 19.595L53.3796 21.3459C53.0474 21.548 52.6817 21.7508 52.1833 21.9192C51.7183 22.0875 51.1865 22.2215 50.655 22.3225C50.057 22.3899 49.5255 22.4573 49.0271 22.4573C47.8974 22.4573 46.9008 22.2217 46.0037 21.7502C45.1397 21.2787 44.4415 20.605 43.9763 19.7629C43.478 18.921 43.2449 17.9108 43.2449 16.7659C43.2449 15.6207 43.5111 14.6098 44.0095 13.7004C44.5079 12.8247 45.2061 12.1178 46.1033 11.6125C47.0004 11.1074 47.997 10.8713 49.1267 10.8713ZM98.8367 6.02075C99.036 6.02075 99.2359 6.05445 99.4685 6.08813C99.6678 6.12182 99.8669 6.18975 99.9998 6.25708V16.1252H99.9666C99.9666 17.4388 99.7345 18.5508 99.2693 19.5276C98.8041 20.4707 98.1391 21.2118 97.3083 21.717C96.4445 22.2221 95.4477 22.4572 94.2849 22.4573C93.1219 22.4573 92.058 22.2223 91.1941 21.717C90.2971 21.2119 89.5997 20.5379 89.1013 19.6624C88.6029 18.7866 88.3367 17.7758 88.3367 16.6643C88.3367 15.5529 88.5698 14.5429 89.0681 13.6672C89.5665 12.7916 90.2307 12.1178 91.0613 11.6125C91.8919 11.1074 92.8223 10.8714 93.8523 10.8713C94.6497 10.8713 95.3479 11.0058 95.9792 11.3088C96.6104 11.6119 97.1089 12.0162 97.5076 12.5549V7.20044C97.5076 6.82994 97.6412 6.52655 97.8738 6.32446C98.1063 6.12253 98.4382 6.0208 98.8367 6.02075ZM71.988 11.1741C72.1874 11.1741 72.3873 11.2078 72.6199 11.2415C72.8191 11.2752 73.0183 11.3431 73.1511 11.4104V22.1545H70.6589V12.3528C70.659 11.9827 70.7919 11.6798 71.0242 11.4778C71.2568 11.2757 71.5893 11.1741 71.988 11.1741ZM80.9929 10.8713C82.0561 10.8713 82.9865 11.0732 83.7507 11.4436C84.5482 11.8141 85.1469 12.3872 85.5789 13.0608C86.0107 13.768 86.2429 14.5768 86.2429 15.5198V22.1545H83.7839V16.1594C83.7839 15.1827 83.5518 14.4078 83.0867 13.9026C82.6215 13.3974 81.9233 13.1282 80.9929 13.1282C79.1322 13.1282 78.2019 14.1386 78.2019 16.1594V22.1545H75.7429V15.5198C75.7429 14.5767 75.976 13.7681 76.408 13.0608C76.8399 12.3535 77.4709 11.8141 78.2351 11.4436C79.0325 11.0732 79.9297 10.8714 80.9929 10.8713ZM59.8269 6.02075C60.0261 6.02081 60.2254 6.05448 60.4578 6.08813C60.657 6.12179 60.8561 6.18976 60.989 6.25708V15.1829L65.4753 11.8479C65.8408 11.5448 66.2066 11.3767 66.5056 11.2756C66.8376 11.1747 67.1032 11.1409 67.3357 11.1409C67.7343 11.1409 68.067 11.208 68.2996 11.3762C68.5322 11.5446 68.7321 11.7469 68.8318 11.9827C68.6325 12.1847 68.2998 12.4204 67.8679 12.7571C67.4359 13.0939 66.9709 13.4652 66.4392 13.8694C65.9076 14.2736 65.3752 14.6776 64.8435 15.0481C64.312 15.4185 63.8134 15.7885 63.3816 16.0579C64.4781 16.8999 65.5751 17.8433 66.6052 18.9211C67.6353 19.9989 68.5324 21.0431 69.2634 22.0872H66.2068C65.808 21.5819 65.342 21.0767 64.8103 20.5042C64.2455 19.9316 63.6476 19.3589 63.0164 18.7864C62.3518 18.2138 61.6868 17.6754 60.989 17.1702V22.1213H58.53V7.20044H58.4968C58.4968 6.82994 58.6304 6.52655 58.863 6.32446C59.0956 6.12241 59.4282 6.02075 59.8269 6.02075ZM15.7986 11.4104C14.3698 15.7215 11.0135 18.8536 6.95972 20.0999L15.0339 21.2112C16.3298 21.4133 17.5927 21.077 18.6228 20.2688C19.6529 19.4941 20.317 18.3148 20.45 17.0012C20.6493 15.6877 20.2845 14.4076 19.5203 13.3635C18.756 12.3194 17.5925 11.6462 16.3298 11.4778L15.7986 11.4104ZM36.1677 13.094C35.2042 13.094 34.3732 13.4308 33.7751 14.0706C33.1438 14.7105 32.8445 15.5866 32.8445 16.6643C32.8445 17.7421 33.1438 18.5844 33.7751 19.2581C34.4065 19.898 35.2041 20.2346 36.1677 20.2346C37.1313 20.2346 37.929 19.898 38.5603 19.2581C39.1916 18.6181 39.49 17.7421 39.49 16.6643C39.49 15.5866 39.1916 14.7105 38.5603 14.0706C37.929 13.4307 37.1312 13.094 36.1677 13.094ZM94.1853 13.094C93.2219 13.094 92.424 13.3972 91.7927 14.0706C91.1614 14.7105 90.8621 15.5866 90.8621 16.6643C90.8621 17.7421 91.1614 18.5844 91.7927 19.2581C92.424 19.8979 93.2218 20.2346 94.1853 20.2346C95.1486 20.2345 95.9789 19.8977 96.5769 19.2581C97.2083 18.6181 97.5076 17.7421 97.5076 16.6643C97.5075 15.5866 97.2082 14.7441 96.5769 14.0706C95.9457 13.431 95.1485 13.0941 94.1853 13.094ZM13.24 11.2083C8.85388 11.2756 4.9327 14.0372 3.30444 18.1799C7.62413 18.1125 11.6118 15.3847 13.24 11.2083ZM49.0603 12.7913C48.0967 12.7913 47.3322 13.0947 46.7341 13.7346C46.1362 14.3409 45.8035 15.1491 45.7703 16.1594C46.0029 16.1594 46.2691 16.1926 46.5349 16.1926H47.5984C50.0905 16.1926 51.3201 15.62 51.3201 14.4749C51.32 13.9698 51.1201 13.566 50.6882 13.2629C50.2895 12.9598 49.7248 12.7913 49.0603 12.7913ZM10.6814 2.71997C8.12279 1.9453 5.43098 3.46146 4.69995 6.05493L2.17456 14.9465C4.6999 10.9723 9.18569 8.54731 14.0037 8.74927C14.3359 7.50314 14.17 6.18981 13.572 5.07837C12.9407 3.93324 11.9108 3.09049 10.6814 2.71997ZM71.8884 6.29028C72.3204 6.29028 72.6861 6.42563 72.9519 6.72876C73.2175 7.03175 73.3835 7.36834 73.3835 7.80591C73.3835 8.18904 73.2822 8.52115 73.0564 8.77856L72.8474 8.9895C72.5934 9.21848 72.2665 9.32153 71.8884 9.32153C71.4565 9.32153 71.0908 9.18716 70.825 8.88403C70.5592 8.58093 70.3933 8.24371 70.3933 7.80591C70.3934 7.36833 70.5261 6.99812 70.825 6.72876C71.0908 6.42563 71.4565 6.29029 71.8884 6.29028Z" fill="white"/>
</svg>
