<svg width="16" height="17" viewBox="0 0 16 17" fill="none" xmlns="http://www.w3.org/2000/svg">
<path d="M10.5034 9.67367H9.97671L9.79004 9.49367C10.4434 8.73367 10.8367 7.747 10.8367 6.67367C10.8367 4.28033 8.89671 2.34033 6.50338 2.34033C4.11004 2.34033 2.17004 4.28033 2.17004 6.67367C2.17004 9.067 4.11004 11.007 6.50338 11.007C7.57671 11.007 8.56338 10.6137 9.32338 9.96033L9.50338 10.147V10.6737L12.8367 14.0003L13.83 13.007L10.5034 9.67367ZM6.50338 9.67367C4.84338 9.67367 3.50338 8.33367 3.50338 6.67367C3.50338 5.01367 4.84338 3.67367 6.50338 3.67367C8.16338 3.67367 9.50338 5.01367 9.50338 6.67367C9.50338 8.33367 8.16338 9.67367 6.50338 9.67367Z" fill="#1840B2"/>
</svg>
